<?xml version="1.0" encoding="iso-8859-1"?>
<!-- Generator: Adobe Illustrator 19.0.0, SVG Export Plug-In . SVG Version: 6.00 Build 0)  -->
<svg version="1.1" id="Capa_1" xmlns="http://www.w3.org/2000/svg" xmlns:xlink="http://www.w3.org/1999/xlink" x="0px" y="0px"
	 viewBox="0 0 512 512" style="enable-background:new 0 0 512 512;" xml:space="preserve">
<g>
	<g>
		<path d="M475.447,185.749C479.756,175.08,482,163.608,482,152c0-49.626-40.374-90-90-90c-0.5,0-1,0.004-1.499,0.012
			c-2.937-14.67-10.119-28.464-20.75-39.366C355.51,8.042,336.776,0,317,0c-19.743,0-39.437,8.371-54.033,22.967
			c-2.759,2.76-5.294,5.702-7.594,8.792c-2.148-2.986-4.517-5.845-7.103-8.55C233.962,8.242,215.044,0,195,0
			s-38.962,8.242-53.269,23.208c-10.463,10.945-17.416,24.367-20.268,38.803C120.976,62.004,120.488,62,120,62
			c-49.626,0-90,40.374-90,90c0,11.608,2.244,23.08,6.553,33.749C13.187,208.292,0,239.108,0,272
			c0,23.172,6.621,45.667,19.147,65.051c10.643,16.471,25.071,30.021,42.048,39.573C68.202,419.319,105.353,452,150,452h0.001
			c-0.012,12.144,3.587,23.952,10.672,34.167C171.894,502.343,190.333,512,210,512c18.15,0,34.431-8.112,45.442-20.888
			C266.909,503.817,283.673,512,302,512c19.667,0,38.106-9.657,49.327-25.833c7.085-10.214,10.685-22.023,10.672-34.167H362
			c44.647,0,81.798-32.681,88.805-75.375c16.977-9.552,31.405-23.103,42.048-39.573C505.379,317.667,512,295.172,512,272
			C512,239.108,498.813,208.292,475.447,185.749z M240,167c0,24.813-20.187,45-45,45c-8.284,0-15,6.716-15,15s6.716,15,15,15
			c16.871,0,32.456-5.603,45-15.041V452c0,16.542-13.458,30-30,30c-9.834,0-19.06-4.834-24.676-12.932
			c-4.571-6.59-6.218-14.345-4.871-22.349c8.365-3.008,16.292-7.262,23.567-12.729c6.623-4.977,7.958-14.38,2.981-21.003
			c-4.977-6.622-14.379-7.958-21.003-2.981C175.84,417.639,163.421,422,150,422c-33.084,0-60-26.916-60-60
			c0-22.862,12.708-43.432,33.165-53.683c7.407-3.711,10.402-12.724,6.691-20.13c-3.711-7.407-12.724-10.402-20.13-6.691
			c-24.285,12.169-41.275,34.044-47.302,59.644C42.246,324.246,30,298.936,30,272c0-27.741,12.511-53.517,34.324-70.718
			c5.855-4.617,7.43-12.835,3.695-19.29C62.773,172.924,60,162.553,60,152c0-33.084,26.916-60,60-60
			c3.971,0,7.937,0.388,11.787,1.154C140.842,94.954,150,88.28,150,77c0-25.477,20.607-47,45-47s45,21.523,45,47V167z
			 M449.558,341.155c-5.872-24.737-22.043-46.163-45.075-58.514c-7.3-3.915-16.393-1.17-20.308,6.13
			c-3.915,7.301-1.17,16.393,6.13,20.308C409.855,319.563,422,339.841,422,362c0,33.084-26.916,60-60,60
			c-12.656,0-25.223-3.909-35.962-11.966c-6.627-4.972-16.03-3.629-21,2.998c-4.971,6.627-3.629,16.029,2.998,21
			c7.26,5.447,15.169,9.687,23.513,12.687c1.346,8.005-0.3,15.759-4.871,22.35C321.06,477.166,311.834,482,302,482
			c-17.047,0-32-14.019-32-30V226.049C283.546,236.378,299.932,242,317,242c8.284,0,15-6.716,15-15s-6.716-15-15-15
			c-25.477,0-47-20.607-47-45V77c0-25.038,21.962-47,47-47c25.239,0,45.617,22.783,44.979,48.128
			c-0.243,9.612,8.523,16.995,17.984,15.077C383.894,92.405,387.943,92,392,92c33.084,0,60,26.916,60,60
			c0,10.553-2.773,20.924-8.02,29.992c-3.735,6.455-2.16,14.673,3.695,19.29C469.489,218.483,482,244.259,482,272
			C482,298.944,469.747,324.261,449.558,341.155z"/>
	</g>
</g>
<g>
</g>
<g>
</g>
<g>
</g>
<g>
</g>
<g>
</g>
<g>
</g>
<g>
</g>
<g>
</g>
<g>
</g>
<g>
</g>
<g>
</g>
<g>
</g>
<g>
</g>
<g>
</g>
<g>
</g>
</svg>
